<?xml version="1.0" encoding="utf-8"?>
<!-- Generator: Adobe Illustrator 21.0.0, SVG Export Plug-In . SVG Version: 6.00 Build 0)  -->
<svg version="1.1" id="图层_1" xmlns="http://www.w3.org/2000/svg" xmlns:xlink="http://www.w3.org/1999/xlink" x="0px" y="0px"
	 viewBox="0 0 20 20" style="enable-background:new 0 0 20 20;" xml:space="preserve">
<style type="text/css">
	.st0{fill:#F36060;}
	.st1{fill:#6B7389;}
</style>
<g>
	<path class="st0" d="M5.5,16h-1c-0.6,0-1-0.4-1-1V9c0-0.6,0.4-1,1-1h1c0.6,0,1,0.4,1,1v6C6.5,15.6,6,16,5.5,16z"/>
	<path class="st1" d="M10.5,16h-1c-0.6,0-1-0.4-1-1V7c0-0.6,0.4-1,1-1h1c0.6,0,1,0.4,1,1v8C11.5,15.6,11.1,16,10.5,16z"/>
	<path class="st1" d="M15.5,16h-1c-0.6,0-1-0.4-1-1V5c0-0.6,0.4-1,1-1h1c0.6,0,1,0.4,1,1v10C16.5,15.6,16.1,16,15.5,16z"/>
</g>
</svg>
